<svg width="32" height="32" viewBox="0 0 32 32" fill="none" xmlns="http://www.w3.org/2000/svg">
  <!-- Background circle -->
  <circle cx="16" cy="16" r="15" fill="#1a1209"/>

  <!-- Lantern top hook -->
  <path d="M16 3 L16 6" stroke="#c9974a" stroke-width="1.8" stroke-linecap="round"/>

  <!-- Lantern cap -->
  <rect x="10.5" y="6" width="11" height="3.5" rx="1.5" fill="#c9974a" opacity="0.9"/>

  <!-- Lantern body -->
  <rect x="9" y="9.5" width="14" height="15" rx="2.5" fill="#1f160a" stroke="#c9974a" stroke-width="1.6" opacity="0.95"/>

  <!-- Vertical bars -->
  <line x1="13" y1="9.5" x2="13" y2="24.5" stroke="#c9974a" stroke-width="0.9" opacity="0.5"/>
  <line x1="19" y1="9.5" x2="19" y2="24.5" stroke="#c9974a" stroke-width="0.9" opacity="0.5"/>

  <!-- Flame glow -->
  <ellipse cx="16" cy="18" rx="3.5" ry="4.5" fill="#e8c87a" opacity="0.2"/>

  <!-- Flame -->
  <path d="M16 23 C13.5 21 13.5 17.5 16 15.5 C18.5 17.5 18.5 21 16 23Z" fill="#e8b84b" opacity="0.95"/>
  <path d="M16 21.5 C14.8 20.2 14.8 18 16 16.8 C17.2 18 17.2 20.2 16 21.5Z" fill="#fff3c4" opacity="0.6"/>

  <!-- Lantern bottom frame -->
  <path d="M10 24.5 L12 28 L20 28 L22 24.5" stroke="#c9974a" stroke-width="1.3" fill="none" opacity="0.8" stroke-linejoin="round"/>
</svg>
